# xmcd CD database file
#
# Track frame offsets:
#	150
#	26202
#	45506
#	63481
#	81891
#	102505
#	125529
#	143413
#	165769
#	183453
#	201405
#	216389
#	243255
#	262263
#	282341
#	308475
#
# Disc length: 4311 seconds
#
# Revision: 0
# Processed by: cddbd v1.5.2PL0 Copyright (c) Steve Scherf et al.
# Submitted via: CDex 1.70beta2
#
DISCID=e910d510
DTITLE=Carmel - The Falling (2012 edition with bonus tracks)
DYEAR=1986
DGENRE=Jazz
TTITLE0=I'm Not Afraid Of You
TTITLE1=Let Me Know
TTITLE2=TOK
TTITLE3=The Falling
TTITLE4=Mama Told Me Not To Come
TTITLE5=Mercy
TTITLE6=Easy For You
TTITLE7=Sticks and Stones
TTITLE8=Sally
TTITLE9=Daddy Long Legs (B-Side of I'm Not Afraid Of You)
TTITLE10=What A Story (B-Side of Mercy)
TTITLE11=Energise My Soul (Live at Victoria Palace) (B-Side of I'm Not Afraid Of You 12")
TTITLE12=All Day Long I Shouted (B-Side of Mercy 12")
TTITLE13=Mercy (Par Pitie) (B-Side of Mercy 12")
TTITLE14=I'm Not Afraid Of You (Extended Remix)
TTITLE15=Hymn Of Love (Recorded Live in Emanuel St James' Church Manchester) (B-Side of Sally)
EXTD=YEAR: 1986
EXTT0=
EXTT1=
EXTT2=
EXTT3=
EXTT4=
EXTT5=
EXTT6=
EXTT7=
EXTT8=
EXTT9=
EXTT10=
EXTT11=
EXTT12=
EXTT13=
EXTT14=
EXTT15=
PLAYORDER=
